# xmcd CD database file
#
# Track frame offsets:
#	150
#	15900
#	57900
#	185475
#
# Disc length: 3223 seconds
#
# Revision: 2
# Processed by: cddbd v1.5.2PL0 Copyright (c) Steve Scherf et al.
# Submitted via: CDex 1.70beta2
#
DISCID=270c9504
DTITLE=高橋美佳子＆千葉紗子 - ながされて藍蘭島 きいちゃって藍蘭島 海龍神社放送局 DJし～でぃ 第2巻
DYEAR=2008
DGENRE=アニメ
TTITLE0=おーぷにんぐ
TTITLE1=届いちゃって、招待状
TTITLE2=戦って、月見亭
TTITLE3=つくちゃって、足場～召し上がって、豪華料理
EXTD=YEAR: 2008
EXTT0=
EXTT1=
EXTT2=
EXTT3=
PLAYORDER=
